<svg xmlns="http://www.w3.org/2000/svg" xml:space="preserve" viewBox="0 0 24 24"><path d="M20.7 8.5V6.9c0-2.2-1.8-4-4-4H7.2c-2.2 0-4 1.8-4 4v1.7c-2.1.4-3.5 2.5-3 4.6.3 1.6 1.5 2.8 3.1 3.1v3.3c0 .9.7 1.6 1.6 1.6h14.3c.9 0 1.6-.7 1.6-1.6v-3.3c2.1-.4 3.5-2.5 3.1-4.7-.4-1.5-1.6-2.8-3.2-3.1m-13.5-4h9.5c1.3 0 2.4 1.1 2.4 2.4v1.7c-1.8.4-3.2 2-3.2 3.9H8C8 10.6 6.7 9 4.8 8.6V6.9c.1-1.4 1.1-2.4 2.4-2.4M20 14.8c-.5 0-.8.4-.8.8v4H4.9v-4c0-.4-.4-.8-.8-.8-1.3 0-2.4-1.1-2.3-2.4 0-1.3 1.1-2.4 2.4-2.3 1.3 0 2.3 1.1 2.3 2.4v4c0 .4.4.8.8.8s.7-.5.7-.9V14h8v2.4c0 .4.4.8.8.8s.8-.4.8-.8v-4c0-1.3 1.1-2.4 2.4-2.4s2.4 1.1 2.4 2.4c-.1 1.3-1.1 2.4-2.4 2.4"/></svg>