<svg xmlns="http://www.w3.org/2000/svg" width="24" height="24" fill="none"><path fill="#000" d="M8.538 13.154a1.154 1.154 0 1 1 0-2.308 1.154 1.154 0 0 1 0 2.308m6.923-2.308a1.153 1.153 0 1 0 0 2.307 1.153 1.153 0 0 0 0-2.307m-1.18 4.35a4.33 4.33 0 0 1-4.563 0 .77.77 0 1 0-.82 1.301 5.87 5.87 0 0 0 6.205 0 .77.77 0 0 0-.821-1.302M22 12A10 10 0 1 1 12 2a10.01 10.01 0 0 1 10 10m-1.538 0a8.47 8.47 0 0 0-8.086-8.453c-1.114 1.566-1.145 3.057-1.145 3.068a.769.769 0 1 0 1.538 0 .77.77 0 0 1 1.539 0 2.308 2.308 0 1 1-4.616 0c0-.07.013-1.375.814-2.945A8.462 8.462 0 1 0 20.462 12"/></svg>