<svg xmlns="http://www.w3.org/2000/svg" xml:space="preserve" viewBox="0 0 24 24"><path d="M21.7 13.8v-1.6c0-.5-.3-1-.8-1.1V3.5c0-.7-.5-1.2-1.2-1.2H4.3c-.7 0-1.2.5-1.2 1.2V11c-.5.2-.8.6-.8 1.1v1.6c-.6.1-1 .6-1 1.2v3.2c0 .7.5 1.2 1.2 1.2h.1v1c0 .4.3.8.8.8h1c.4 0 .8-.3.8-.8v-1H19v1c0 .4.3.8.8.8h1c.4 0 .8-.3.8-.8v-1h.1c.7 0 1.2-.5 1.2-1.2V15c-.1-.6-.6-1.1-1.2-1.2M4.6 3.7h14.9v7.2h-.9V9.2c0-.7-.5-1.2-1.2-1.2h-3.9c-.7 0-1.2.5-1.2 1.2V11h-.7V9.2c0-.7-.5-1.2-1.2-1.2H6.5c-.7 0-1.3.5-1.3 1.2V11h-.6zm12.5 5.8V11h-3.3V9.5zm-7 0V11H6.8V9.5zm-6.3 2.9h16.4v1.3H3.8zm17.5 5.5H2.8v-2.6h18.5z" style="fill-rule:evenodd;clip-rule:evenodd"/></svg>