<svg xmlns="http://www.w3.org/2000/svg" width="24" height="24" fill="none"><path fill="#000" d="M15.536 7.542c.544 0 1.075-.163 1.528-.467a2.77 2.77 0 0 0 1.012-1.244 2.79 2.79 0 0 0-.596-3.02 2.73 2.73 0 0 0-2.997-.6 2.76 2.76 0 0 0-1.234 1.02 2.786 2.786 0 0 0 .342 3.5 2.74 2.74 0 0 0 1.945.81m0-3.959a1.17 1.17 0 0 1 1.089.733 1.2 1.2 0 0 1-.256 1.295 1.176 1.176 0 0 1-2.012-.84c0-.315.124-.617.345-.84s.521-.348.834-.348m3.535 9.5c-.777 0-1.536.232-2.182.667a3.95 3.95 0 0 0-1.447 1.777 3.99 3.99 0 0 0 .852 4.314 3.9 3.9 0 0 0 4.281.858 3.94 3.94 0 0 0 1.763-1.458 3.98 3.98 0 0 0-.489-4.998 3.9 3.9 0 0 0-2.778-1.16m0 6.334c-.466 0-.922-.14-1.31-.4a2.37 2.37 0 0 1-.867-1.066 2.39 2.39 0 0 1 .51-2.589 2.35 2.35 0 0 1 2.57-.514c.43.18.798.484 1.057.874a2.39 2.39 0 0 1-.293 2.999 2.35 2.35 0 0 1-1.667.696M4.93 13.083c-.777 0-1.537.232-2.183.667A3.95 3.95 0 0 0 1.3 15.527a3.99 3.99 0 0 0 .852 4.314 3.9 3.9 0 0 0 4.281.858 3.94 3.94 0 0 0 1.763-1.458 3.98 3.98 0 0 0-.489-4.998 3.93 3.93 0 0 0-2.777-1.16m0 6.334c-.467 0-.922-.14-1.31-.4a2.37 2.37 0 0 1-.868-1.066 2.39 2.39 0 0 1 .51-2.589 2.35 2.35 0 0 1 2.57-.514c.43.18.798.484 1.057.874a2.39 2.39 0 0 1-.293 2.999 2.35 2.35 0 0 1-1.666.696M18.286 11.5h-3.929a.78.78 0 0 1-.556-.232l-2.587-2.607-2.032 2.047 3.374 3.399a.8.8 0 0 1 .23.56v4.75c0 .21-.083.411-.23.56a.783.783 0 0 1-1.342-.56v-4.423l-3.698-3.726a.79.79 0 0 1-.171-.863.8.8 0 0 1 .17-.257l3.143-3.166a.79.79 0 0 1 .857-.172q.145.06.255.172l2.912 2.935h3.604a.78.78 0 0 1 .555.232.795.795 0 0 1 0 1.12.78.78 0 0 1-.555.231"/></svg>