<svg xmlns="http://www.w3.org/2000/svg" xml:space="preserve" viewBox="0 0 24 24"><path d="M21.8 9.8H21c-.5-5-4.8-8.6-9.8-8.1C6.8 2 3.4 5.5 3 9.8h-.9c-.5 0-.8.4-.8.8 0 4 2.2 7.6 5.7 9.5v.4c0 .9.7 1.6 1.6 1.6h6.6c.9 0 1.6-.7 1.6-1.6v-.4c3.5-1.8 5.7-5.5 5.7-9.5.1-.4-.2-.8-.7-.8m-2.5 0H14c1-1.5 2.5-2.6 4.2-3 .6.9 1 1.9 1.1 3m-2.7-4.9c.2.1.4.3.6.5-2.2.8-4 2.3-5 4.4h-3c1-2.9 3.8-4.9 7-4.9zM12 3.2c.7 0 1.3.1 1.9.3-3.1.8-5.6 3.2-6.5 6.3H4.7c.4-3.7 3.5-6.6 7.3-6.6m3.7 15.6c-.3.1-.5.4-.5.7v.9H8.7v-.9c0-.3-.2-.6-.5-.7-2.9-1.4-4.9-4.2-5.2-7.4h18c-.3 3.2-2.3 6.1-5.3 7.4"/></svg>