<svg xmlns="http://www.w3.org/2000/svg" xml:space="preserve" viewBox="0 0 24 24"><path d="M22.7 6.3c-.1-.2-.2-.4-.4-.5l-7.8-4c-.9-.3-1.6-.5-2.5-.5s-1.6.2-2.4.5l-7.8 4c-.2.1-.4.3-.5.5 0 .2 0 .5.1.8.1.2.3.4.5.4.2.1.4 0 .6-.1l7.8-4c.5-.2 1.1-.3 1.6-.3.8 0 1.1.1 1.6.3l7.8 4c.1.1.2.1.3.1h.3c.1 0 .2-.1.3-.2s.1-.2.2-.2c.3-.2.3-.6.3-.8M21 13l-1.8-3.2c-.4-.6-1-1.3-1.6-1.6-.6-.4-1.5-.6-2.3-.6H8.7c-.8 0-1.5.2-2.3.6-.6.4-1.2 1-1.6 1.6L3 13c-.5 1-.9 2-.9 3.1v1.3c0 .6.2 1.3.5 1.8s.8 1 1.3 1.3v.4c0 .5.2 1 .5 1.3s.8.5 1.3.5 1-.2 1.3-.5.5-.8.5-1.3h8.9c0 .5.2 1 .5 1.3s.8.5 1.3.5 1-.2 1.3-.5.5-.8.5-1.3v-.4c.5-.3 1-.8 1.3-1.3s.5-1.2.5-1.8v-1.3c.1-1.1-.3-2.2-.8-3.1M6.4 10.7c.2-.4.5-.8 1-1 .6-.3.8-.3 1.4-.3h6.5c.4 0 1 .1 1.3.3.4.2.8.5 1 1l1.8 3.1H4.6zM20 17.4c0 .4-.2 1-.5 1.3s-.8.5-1.3.5H5.8c-.4 0-1-.2-1.3-.5-.3-.4-.5-.9-.5-1.3v-1.8h1.7v.9c0 .2.1.4.2.6.3.2.5.3.8.3.2 0 .4-.1.6-.2s.2-.4.2-.6v-.9h8.9v.9c0 .2.1.4.2.6.2.2.4.2.6.2s.4-.1.6-.2.2-.4.2-.6v-.9h1.7v1.7z"/></svg>