<svg xmlns="http://www.w3.org/2000/svg" xml:space="preserve" viewBox="0 0 24 24"><path d="M6.6 5.5V2.3c0-.4.4-.8.8-.8s.8.4.8.8v3.2c0 .4-.4.8-.8.8-.4-.1-.8-.4-.8-.8m4 .7c.4 0 .8-.4.8-.8V2.3c0-.4-.4-.8-.8-.8s-.8.4-.8.8v3.2c0 .4.4.7.8.7m3.2 0c.4 0 .8-.4.8-.8V2.3c0-.4-.4-.8-.8-.8s-.8.4-.8.8v3.2c0 .4.3.7.8.7m9.4 5.6v.8c0 2.1-1.6 3.8-3.7 3.9-.5 1.5-1.5 2.9-2.7 4h2.4c.4 0 .8.4.8.8s-.4.8-.8.8H1.9c-.4 0-.8-.4-.8-.8s.4-.8.8-.8h2.4c-2-1.8-3.2-4.4-3.2-7.1V8.6c0-.4.4-.8.8-.8h17.4c2.2 0 3.9 1.8 3.9 4m-4.7-2.4H2.7v4c0 3 1.7 5.8 4.5 7.1H14c2.7-1.3 4.5-4.1 4.5-7.1zm3.2 2.4c0-1-.6-1.9-1.6-2.2v3.8c0 .5 0 1-.1 1.5 1-.3 1.7-1.2 1.7-2.3z"/></svg>