<svg xmlns="http://www.w3.org/2000/svg" xml:space="preserve" viewBox="0 0 24 24"><path d="M12 1C6 1 1 6 1 12c0 1 .1 1.9.4 2.8v.2C2.8 19.6 7 22.9 12 22.9s9.2-3.4 10.5-7.9v-.1c.2-.9.4-1.8.4-2.8C23 6 18 1 12 1m0 20.4c-1.9 0-3.7-.5-5.1-1.5h10.2c-1.4 1-3.2 1.5-5.1 1.5m6.9-3.1H5.1c-.8-.8-1.4-1.8-1.8-2.8h17.5c-.5 1.1-1.1 2-1.9 2.8M7.9 12c0-2.2 1.8-4.1 4.1-4.1s4.1 1.8 4.1 4.1c0 .7-.2 1.4-.5 1.9H8.4c-.3-.6-.5-1.2-.5-1.9m13.3 1.9h-4c.2-.6.3-1.2.3-1.9 0-3.1-2.5-5.6-5.6-5.6S6.4 8.9 6.4 12c0 .7.1 1.3.3 1.9H2.8c-.1-.6-.2-1.3-.2-1.9 0-5.2 4.2-9.4 9.4-9.4s9.4 4.2 9.4 9.4c0 .7 0 1.3-.2 1.9" style="fill-rule:evenodd;clip-rule:evenodd"/></svg>