<svg xmlns="http://www.w3.org/2000/svg" xml:space="preserve" viewBox="0 0 24 24"><path d="M21.4 4.5v8.1c0 .5-.4.8-.8.8-.5 0-.8-.4-.8-.8V4.5c0-.9-.7-1.7-1.7-1.7H6.2c-.9 0-1.7.7-1.7 1.7v15.1c0 .9.7 1.7 1.7 1.7h2.2c.5 0 .8.4.8.8 0 .5-.4.8-.8.8H6.2c-1.8 0-3.3-1.5-3.3-3.3V4.5c0-1.8 1.5-3.3 3.3-3.3H18c1.9-.1 3.4 1.4 3.4 3.3"/><path d="M15.1 5.5c0 .5-.4.8-.9.8H6.8c-.5.1-.9-.3-.9-.8s.4-.8.9-.8h7.5c.4 0 .8.3.8.8m-2.8 3.4c0 .5-.4.9-.8.9H6.3c-.5 0-.9-.4-.9-.9.1-.5.4-.9.9-.9h5.1c.5 0 .9.4.9.9"/><path d="m20.3 20.7-1.5-1.6c.6-.8.9-1.8.9-2.8 0-2.7-2.2-4.9-4.9-4.9s-4.9 2.2-4.9 4.9 2.2 4.9 4.9 4.9c1 0 2-.3 2.8-.9l1.5 1.6q.3.3.6.3c.2 0 .4-.1.6-.2.3-.4.3-1 0-1.3m-5.6-1.2c-1.8 0-3.2-1.5-3.2-3.2 0-1.8 1.5-3.2 3.2-3.2 1.8 0 3.2 1.5 3.2 3.2.1 1.7-1.4 3.2-3.2 3.2" style="fill-rule:evenodd;clip-rule:evenodd"/></svg>