<svg xmlns="http://www.w3.org/2000/svg" xml:space="preserve" viewBox="0 0 24 24"><path d="M19.9 17.5h-5.5c-.4 0-.8.4-.8.8v1.2c0 2 1.6 3.6 3.6 3.6s3.6-1.6 3.6-3.6v-1.2c-.1-.4-.5-.8-.9-.8m-.8 2c0 1.1-.9 2-2 2s-2-.9-2-2v-.4H19v.4zm-9.5-4.3H4.1c-.4 0-.8.4-.8.8v1.2c0 2 1.6 3.6 3.6 3.6s3.6-1.6 3.6-3.6V16c-.1-.5-.4-.8-.9-.8m-.8 1.9c0 1.1-.9 2-2 2s-2-.9-2-2v-.4h3.9v.4zM6.9 1C5.7 1 4.6 2 3.7 3.8c-1.4 2.9-1.8 7.2 0 9.5q.3.3.6.3h5c.2 0 .5-.1.6-.3 1.9-2.3 1.4-6.6 0-9.5C9.1 2 8 1 6.9 1M9 12H4.8c-1.1-1.8-.7-5.2.4-7.5.6-1.3 1.3-2 1.7-2s1.1.6 1.7 2c1.1 2.3 1.5 5.7.4 7.5m5.6 3.9h5c.2 0 .5-.1.6-.3 1.9-2.3 1.4-6.6 0-9.5-.9-1.8-2-2.9-3.1-2.9s-2.3 1-3.1 2.9c-1.4 2.9-1.8 7.2 0 9.5q.3.3.6.3m.8-9c.6-1.3 1.3-2 1.7-2s1.1.6 1.7 2c1.1 2.3 1.5 5.7.4 7.5H15c-1.1-1.8-.7-5.2.4-7.5"/></svg>