<svg xmlns="http://www.w3.org/2000/svg" xml:space="preserve" viewBox="0 0 24 24"><path d="M6.9 7.7V3c0-.4.4-.8.8-.8s.8.3.8.8v4.7c0 .4-.4.8-.8.8s-.8-.4-.8-.8M21 3v18c0 .4-.4.8-.8.8s-.8-.4-.8-.8v-4.7h-4.7c-.4 0-.8-.4-.8-.8 0-1.9.3-3.7.7-5.6 1-4 2.8-6.6 5.2-7.7.4-.2.9 0 1 .4.2.2.2.3.2.4m-1.6 1.3c-3.1 2.4-3.8 8.3-3.9 10.4h3.9zm-7.8-1.5c-.1-.4-.5-.7-.9-.6s-.7.5-.6.9l.8 4.6c0 1.7-1.4 3.1-3.1 3.1S4.6 9.5 4.6 7.7l.8-4.6c.1-.4-.2-.8-.6-.9-.5-.1-.9.2-1 .6L3 7.5v.1c0 2.3 1.7 4.2 3.9 4.6V21c0 .4.4.8.8.8s.8-.4.8-.8v-8.7c2.3-.4 3.9-2.3 3.9-4.6v-.1z"/></svg>