<svg xmlns="http://www.w3.org/2000/svg" xml:space="preserve" viewBox="0 0 24 24"><path d="M23.2 19.3h-.8v-9.1c0-.3-.1-.5-.2-.7s-.3-.4-.5-.6l-8.8-5.7q-.45-.3-.9-.3c-.45 0-.6.1-.9.3L2.3 8.8c-.2.2-.4.4-.5.6s-.2.5-.2.7v9.1H.8c-.2 0-.4.1-.6.2-.1.2-.2.4-.2.6s.1.4.2.6c.2.1.4.2.6.2h22.4c.2 0 .4-.1.6-.2s.2-.3.2-.6c0-.2-.1-.4-.2-.6-.2-.1-.4-.1-.6-.1m-20-9.2L12 4.4l8.8 5.7v9.1h-2.4v-5.5c0-.2-.1-.4-.2-.6-.2 0-.4-.1-.6-.1H6.4c-.2 0-.4.1-.6.2s-.2.3-.2.6v5.5H3.2zm13.6 4.5v1.6h-4v-1.6zm-5.6 1.5h-4v-1.6h4zm-4 1.6h4v1.6h-4zm5.6 0h4v1.6h-4z"/></svg>