<svg xmlns="http://www.w3.org/2000/svg" xml:space="preserve" viewBox="0 0 24 24"><path d="m21.7 3.9-2.6-2.6c-.3-.3-.8-.3-1.2 0-.3.3-.3.8 0 1.1L20.5 5c.5.5.8 1.3.8 2v10.5c0 .6-.5 1-1 1-.6 0-1.1-.5-1.1-1v-.9c0-1.5-1.2-2.7-2.7-2.7h-1V5.5C15.5 3 13.5 1 11 1H5.5C3 1 1 3 1 5.5v13C1 21 3 23 5.5 23H11c2.5 0 4.5-2 4.5-4.5v-2.9h1c.6 0 1 .5 1 1v.9c0 1.5 1.2 2.7 2.7 2.7s2.7-1.2 2.7-2.7V7c.1-1.2-.4-2.3-1.2-3.1M14 18.5c0 1.6-1.3 2.9-2.9 2.9H5.5c-1.6 0-2.9-1.3-2.9-2.9V11H14zm0-9.2H2.6V5.5c0-1.6 1.3-2.9 2.9-2.9H11c1.6 0 2.9 1.3 2.9 2.9v3.8z" style="fill-rule:evenodd;clip-rule:evenodd"/></svg>