<svg xmlns="http://www.w3.org/2000/svg" xml:space="preserve" viewBox="0 0 24 24"><path d="M22.2 3.6c-.4-1.4-2-2.3-3.4-1.9s-2.3 2-1.9 3.4c.3.9 1 1.6 1.9 1.9v4.1h-6V7c1.4-.4 2.3-2 1.9-3.4s-2-2.3-3.4-1.9c-1.5.4-2.4 2-1.9 3.4.3.9.9 1.6 1.9 1.9v4.1h-6V7c1.4-.4 2.3-2 1.9-3.4-.5-1.1-1.5-2-2.8-2-1.4 0-2.7 1.2-2.7 2.7 0 1.2.8 2.3 2 2.6v9.9c-1.4.4-2.3 2-1.9 3.4s2 2.3 3.4 1.9 2.3-2 1.9-3.4c-.2-.8-.9-1.5-1.9-1.9v-4.1h5.9v4.1c-1.4.4-2.3 2-1.9 3.4s2 2.3 3.4 1.9 2.3-2 1.9-3.4c-.3-.8-.9-1.5-1.9-1.9v-4.1h7.6V7c1.6-.5 2.4-1.9 2-3.4M5.5 19.5c0 .6-.5 1-1 1-.6 0-1-.5-1-1 0-.6.5-1 1-1s1 .5 1 1m-1.1-14c-.6 0-1-.5-1-1 0-.6.5-1 1-1 .6 0 1 .5 1 1 .1.5-.4 1-1 1m8.6 14c0 .6-.5 1-1 1s-1-.5-1-1c0-.6.5-1 1-1s1 .5 1 1m-1-14c-.6 0-1-.5-1-1 0-.6.5-1 1-1s1 .5 1 1-.4 1-1 1m7.6 0c-.6 0-1-.5-1-1 0-.6.5-1 1-1s1 .5 1 1-.4 1-1 1" style="fill-rule:evenodd;clip-rule:evenodd"/></svg>