<svg xmlns="http://www.w3.org/2000/svg" xml:space="preserve" viewBox="0 0 24 24"><path d="M23.6 7.5 12.4 1.2c-.2-.1-.5-.1-.7 0L.4 7.5c-.4.2-.5.7-.3 1.1.1.1.2.3.3.3L3 10.4v4.8c0 .4.1.8.4 1.1 1.2 1.4 4 3.9 8.6 3.9 1.5 0 3.1-.3 4.5-.9v3.2c0 .4.3.8.8.8s.8-.4.8-.8v-4c1-.6 1.9-1.3 2.6-2.2.2-.3.4-.7.4-1.1v-4.8l2.6-1.5c.4-.2.5-.7.3-1.1-.2-.1-.3-.2-.4-.3M12 18.5c-4.1 0-6.4-2.1-7.5-3.3v-3.9l7.1 4c.2.1.5.1.7 0l4.1-2.3v4.6c-1.1.5-2.6.9-4.4.9m7.5-3.3c-.5.5-1 1-1.5 1.4v-4.5l1.5-.8zm-1.9-4.7-5.3-3c-.4-.2-.8-.1-1 .3s-.1.9.3 1.1l4.4 2.5-4 2.3-9.7-5.5L12 2.8l9.7 5.4z"/></svg>