<svg xmlns="http://www.w3.org/2000/svg" xml:space="preserve" id="Layer_1" x="0" y="0" version="1.1" viewBox="0 0 24 24"><style>.st0{fill-rule:evenodd;clip-rule:evenodd}</style><path d="m18.1 14.6-.9-3.6c-.1-.4-.4-.7-.8-.7-2.6-.1-4.6.7-6.1 1.6-.8.5-1.1 1.5-.9 2.3s.9 1.5 1.9 1.5h6c.3 0 .5-.1.7-.3.1-.3.2-.6.1-.8m-6.8-.7q-.15 0 0 0c-.1 0-.1-.1-.2-.2v-.2s0-.1.1-.1c1.1-.7 2.6-1.3 4.4-1.4l.5 1.8h-4.8z" class="st0"/><path d="M23.9 3.5c-.2-.4-.7-.6-1.2-.4 0 0-.1 0-.1.1-.1.1-.3.2-.5.2-.4.2-.9.5-1.4.9s-1.1.8-1.6 1.2-1 .9-1.3 1.5h-1.7C11.6 7.6 2.8 9.9 0 18.9c-.1.3 0 .6.1.8.2.2.5.3.8.3H19c.4 0 .8-.3.9-.8V19c0-.1.1-.3.2-.5.2-.3.6-.7 1.3-.7.3 0 .5-.1.7-.4.2-.2.2-.5.2-.8l-1.5-6.4c-.2-1-.8-1.8-1.5-2.4.2-.3.5-.6.9-1 .5-.4 1-.8 1.5-1.1s1-.6 1.3-.8c.2-.1.3-.2.4-.2 0 0 .1 0 .1-.1.5-.1.6-.6.4-1.1m-3.5 12.7c-.5.2-.9.4-1.2.7-.2.2-.4.4-.5.6l-.3.6H2.1c2.8-6.9 10-8.9 14.2-9.4h.3c1.1 0 2.1.8 2.4 2z" class="st0"/></svg>