<svg xmlns="http://www.w3.org/2000/svg" xml:space="preserve" viewBox="0 0 24 24"><path d="M16.7 8v-.3c0-.4-.2-.8-.5-1.1s-.7-.5-1.1-.5h-2.4V2.3c0-.2-.1-.4-.2-.5s-.3-.2-.6-.2-.4.1-.6.2c-.1.1-.2.3-.2.5v3.9H8.9c-.5 0-.9.1-1.2.4-.2.3-.4.7-.4 1.1V8c-1.9.9-3.5 2.3-4.6 4C1.6 13.8 1 15.8 1 17.8c0 .2.1.4.2.6.1.1.3.2.6.2h6.3c0 1 .4 2 1.2 2.7.7.7 1.7 1.1 2.8 1.1s2-.4 2.8-1.1c.7-.7 1.2-1.7 1.2-2.7h6.3c.2 0 .4-.1.6-.2.1-.1.2-.3.2-.6 0-2.1-.6-4.1-1.7-5.8-1.3-1.7-2.9-3.1-4.8-4M12 20.9c-.6 0-1.2-.2-1.7-.7-.4-.4-.7-1-.7-1.6h4.7c0 .6-.2 1.2-.7 1.6-.4.5-1 .7-1.6.7m-9.4-3.8c.1-1.7.8-3.3 1.8-4.7s2.4-2.5 4-3.1c.1-.1.3-.2.4-.3s.1-.3.1-.4v-.9h6.3v.8c0 .2 0 .3.1.4s.2.2.4.3c1.6.7 3 1.7 4 3.1s1.6 3 1.8 4.7H2.6z" style="fill:#111827"/></svg>