<svg xmlns="http://www.w3.org/2000/svg" xml:space="preserve" viewBox="0 0 24 24"><path d="M15.9 5.7c-.7-.8-1.8-1.4-2.9-1.6h-.3c-.1 0-.2.1-.3.1-.1.1-.2.1-.2.2s-.1.2-.1.3V5c0 .1.1.2.1.3l.2.2c.1 0 .2.1.3.1 1.6.3 3 1.7 3.2 3.2 0 .2.1.3.3.4.1.1.3.2.5.2h.1c.2 0 .4-.1.5-.3s.2-.4.1-.6c-.2-.9-.7-1.9-1.5-2.8m0 0c-.7-.8-1.8-1.4-2.9-1.6h-.3c-.1 0-.2.1-.3.1-.1.1-.2.1-.2.2s-.2.3-.2.4v.3c0 .1.1.2.1.3l.2.2c.1 0 .2.1.3.1 1.6.3 3 1.7 3.2 3.2 0 .2.1.3.3.4.1.1.3.2.5.2h.1c.2 0 .4-.1.5-.3s.2-.4.1-.6c-.1-1-.6-2-1.4-2.9m4.1.5c-.4-1-1-2-1.9-2.8-.8-.7-1.9-1.4-2.9-1.8S13 1 11.8 1c-4.7.1-8.5 4-8.4 8.7 0 1.3.3 2.6.8 3.8s1.4 2.2 2.4 3c.3.1.4.3.5.5s.2.4.2.7v.5c0 .4.2.8.4 1.2.3.3.7.4 1.2.4h6.3c.4 0 .8-.2 1.2-.4.3-.3.4-.7.4-1.2v-.6c0-.2.1-.5.2-.7s.2-.4.4-.5c1-.8 1.9-1.9 2.4-3 .5-1.2.8-2.5.8-3.8 0-1.2-.2-2.2-.6-3.4m-1.6 6.5c-.4.9-1.2 1.8-2 2.5-.4.3-.7.6-.9 1s-.3.9-.3 1.4v.6H8.9v-.6c0-.5-.1-.9-.3-1.4q-.3-.6-.9-1.2c-.8-.6-1.6-1.5-2-2.4-.5-.9-.7-2-.7-3 0-3.9 3-7 6.9-7.1.9 0 1.9.1 2.7.5.8.3 1.7.8 2.3 1.6.6.6 1.3 1.5 1.6 2.3.4.8.5 1.8.5 2.7.1 1.1-.2 2.2-.6 3.1m-5.5-8.6h-.3c-.1 0-.2.1-.3.1-.1.1-.2.1-.2.2s-.1.2-.1.3V5c0 .1.1.2.1.3l.2.2c.1 0 .2.1.3.1 1.6.3 3 1.7 3.2 3.2 0 .2.1.3.3.4.1.1.3.2.5.2h.1c.2 0 .4-.1.5-.3s.2-.4.1-.6c-.2-1-.7-2.1-1.6-2.9-.6-.7-1.6-1.2-2.8-1.5m3.6 17.5c-.2-.1-.3-.2-.5-.2H8c-.2 0-.4.1-.5.2s-.2.3-.2.5.1.4.2.5.3.2.5.2h7.9c.2 0 .4-.1.5-.2s.2-.3.2-.5 0-.3-.1-.5" style="fill:#111827"/></svg>