<svg xmlns="http://www.w3.org/2000/svg" xml:space="preserve" viewBox="0 0 24 24"><path d="M9.9 12.1c-.4-.4-1-.7-1.6-.7h-.6V9.3h1.8c.3 0 .6-.3.6-.6s-.3-.6-.6-.6H7.7V6.9c0-.3-.3-.6-.6-.6s-.6.3-.6.6v1.3h-.6c-.6 0-1.2.2-1.6.7-.4.4-.7 1-.7 1.6s.2 1.2.7 1.6c.4.4 1 .7 1.6.7h.6v2.1H4.2c-.3 0-.6.3-.6.6s.3.6.6.6h2.3v1.3c0 .3.3.6.6.6s.6-.3.6-.6v-1.3h.6c.6 0 1.2-.2 1.6-.7.4-.4.7-1 .7-1.6 0-.8-.3-1.3-.7-1.7m-3.4-.7h-.6c-.3 0-.6-.1-.7-.3-.2-.2-.3-.5-.3-.7 0-.3.1-.5.3-.7s.5-.3.8-.3h.6v2zm1.8 3.3h-.6v-2.1h.6c.3 0 .6.1.8.3s.3.5.3.7c0 .3-.1.5-.3.7-.3.3-.5.4-.8.4"/><path d="M22.9 5.8v3.9c0 .4-.3.8-.8.8-.4 0-.8-.3-.8-.8V5.8c0-.7-.5-1.2-1.2-1.2H3.8c-.7 0-1.2.5-1.2 1.2v13.4c0 .7.5 1.2 1.2 1.2h2.6c.4 0 .8.3.8.8 0 .4-.4.8-.8.8H3.8c-1.5 0-2.7-1.2-2.7-2.7V5.8c0-1.5 1.2-2.7 2.7-2.7h16.3c1.6 0 2.8 1.2 2.8 2.7"/><path d="M21.5 12.1c-.1-.2-.2-.4-.4-.6s-.4-.3-.6-.4-.5-.1-.7-.1c-.3 0-.5 0-.8.1-.2.1-.5.3-.6.4L11.7 18c-.1.1-.1.2-.2.3l-.7 2.7c-.1.2 0 .4.2.6.1.1.3.2.4.2h.2l2.7-.7c.1 0 .2-.1.3-.2l6.5-6.5c.2-.2.3-.4.4-.6s.2-.5.2-.8-.1-.7-.2-.9m-1.1.7c0 .1 0 .2-.1.3 0 .1-.1.2-.2.3l-6.4 6.4-1.5.4.4-1.5 6.4-6.4c.1-.1.2-.1.3-.2q.3-.15.6 0c.1 0 .2.1.2.2.1.1.1.2.2.2.1.1.1.2.1.3m-.8-5.7c0 .4-.3.7-.8.7H13c-.4 0-.8-.3-.8-.7s.3-.8.8-.8h5.9c.4 0 .7.4.7.8m-1.9 2.6c0 .4-.3.8-.7.8h-4c-.4 0-.8-.3-.8-.8 0-.4.4-.7.8-.7h3.9c.4 0 .8.3.8.7"/></svg>