<svg xmlns="http://www.w3.org/2000/svg" width="24" height="24" fill="none"><path fill="#000" d="M18.844 5.632c.75-1.334.695-2.035.596-2.335a.73.73 0 0 0-.248-.362.75.75 0 1 1 .61-1.37 2.12 2.12 0 0 1 1.061 1.26c.315.95.076 2.142-.712 3.542-.75 1.335-.696 2.037-.597 2.337a.73.73 0 0 0 .248.36.75.75 0 1 1-.61 1.371 2.1 2.1 0 0 1-1.06-1.26c-.313-.95-.074-2.144.712-3.543M14.38 9.175a2.1 2.1 0 0 0 1.062 1.26.75.75 0 1 0 .609-1.37.73.73 0 0 1-.248-.361c-.099-.3-.153-1.002.597-2.337.788-1.4 1.03-2.592.712-3.542a2.12 2.12 0 0 0-1.061-1.26.75.75 0 1 0-.61 1.37.73.73 0 0 1 .248.362c.1.3.154 1.001-.596 2.335-.786 1.4-1.025 2.593-.71 3.543zm5.671 10.57a.75.75 0 1 1-1.11 1.01L16.441 18H3a1.5 1.5 0 0 1-1.5-1.5v-3A1.5 1.5 0 0 1 3 12h7.987L3.945 4.254a.75.75 0 1 1 1.11-1.008zM3 16.5h4.5v-3H3zm12.077 0-2.727-3H9v3zM21 12h-4.264a.75.75 0 0 0 0 1.5H21v3h-.172a.75.75 0 1 0 0 1.5H21a1.5 1.5 0 0 0 1.5-1.5v-3A1.5 1.5 0 0 0 21 12"/></svg>