<svg xmlns="http://www.w3.org/2000/svg" xml:space="preserve" id="Layer_1" x="0" y="0" version="1.1" viewBox="0 0 24 24"><style>.st0{fill-rule:evenodd;clip-rule:evenodd}</style><path d="M12 .8C5.9.8.8 5.9.8 12S5.9 23.1 12 23.1s11.2-5 11.2-11.1S18.1.8 12 .8m0 20.7c-5.3 0-9.5-4.3-9.5-9.5S6.7 2.4 12 2.4s9.5 4.3 9.5 9.5-4.2 9.6-9.5 9.6" class="st0"/><path d="M19.5 11.6c0-1.2-1-2.2-2.2-2.2h-6.5L7.6 6.1c-.3-.4-.8-.4-1.1-.1s-.3.8 0 1.1l2.1 2.3H6.3c-1.2 0-2.2 1-2.2 2.2s1 2.2 2.2 2.2h6.4l3.4 3.6c.3.3.8.3 1.1 0s.3-.8 0-1.1l-2.4-2.6h2.3c1.3.1 2.4-.9 2.4-2.1m-13.2.6c-.3 0-.6-.3-.6-.6 0-.4.3-.6.6-.6H10l1.2 1.3h-5zm8.6 0h-1.6l-1.2-1.3h2.8zm1.6-1.3h.7c.4 0 .6.3.6.6s-.3.6-.6.6h-.7z" class="st0"/></svg>