<svg xmlns="http://www.w3.org/2000/svg" xml:space="preserve" viewBox="0 0 24 24"><path d="M20.2 2.1H3.8c-.9 0-1.6.7-1.6 1.6v16.4c0 .9.7 1.6 1.6 1.6h16.4c.9 0 1.6-.7 1.6-1.6V3.8c.1-.9-.7-1.7-1.6-1.7m0 18.1H3.8V3.8h16.4zM6.3 6.7c0-.7.6-1.2 1.2-1.2s1.2.5 1.2 1.2-.5 1.2-1.2 1.2-1.2-.6-1.2-1.2m4.5 0c0-.7.6-1.2 1.2-1.2s1.2.6 1.2 1.2-.5 1.2-1.2 1.2-1.2-.6-1.2-1.2m4.5 0c0-.7.6-1.2 1.2-1.2.7 0 1.2.6 1.2 1.2s-.6 1.2-1.2 1.2c-.7 0-1.2-.6-1.2-1.2m2.4 2.8H6.3c-.5 0-.8.4-.8.8v7.4c0 .5.4.8.8.8h11.5c.5 0 .8-.4.8-.8v-7.4c0-.4-.4-.8-.9-.8m-.8 7.4H7.1v-5.7H17v5.7z"/></svg>