<svg xmlns="http://www.w3.org/2000/svg" xml:space="preserve" viewBox="0 0 24 24"><path d="M22.9 19.4h-3.3V17h2.5c.1 0 .2 0 .4-.1.1-.1.2-.1.3-.2s.1-.2.2-.3V16L19.5 2.5c0-.2-.1-.3-.3-.4-.1-.1-.3-.2-.5-.2s-.4.1-.5.2-.2.3-.3.4l-3.3 13.3v.4c0 .1.1.2.2.3s.2.2.3.2c.1.1.2.1.4.1H18v2.5h-6.7v-1.6h.7c.2 0 .4-.1.6-.2.2-.2.2-.4.2-.6s-.1-.4-.2-.6c-.2-.3-.4-.3-.6-.3h-.8v-1.6h.8c.2 0 .4-.1.6-.2.2-.2.2-.4.2-.6s-.1-.4-.2-.6c-.2-.2-.4-.2-.6-.2H2.8c-.2 0-.4.1-.6.2s-.2.4-.2.6.1.4.2.6c.2.2.4.2.6.2h.8V16h-.8c-.2 0-.4.1-.6.2-.2.2-.2.4-.2.7s.1.4.2.6c.2.2.4.2.6.2h.8v1.6H1.1c-.2 0-.4.1-.6.2-.2.2-.2.4-.2.6s.1.4.2.6c.2.3.4.3.6.3h21.7c.2 0 .4-.1.6-.2.2-.2.2-.4.2-.6s-.1-.4-.2-.6-.3-.2-.5-.2M18.7 6.1l2.3 9.1h-4.5zM5.3 14.4h4.2V16H5.3zm0 3.3h4.2v1.6H5.3zm5.5-8.3c.6 0 1.1-.2 1.6-.5s.8-.8 1-1.3.3-1.1.2-1.6-.4-1.1-.8-1.5-.9-.7-1.5-.8c-.5-.1-1.1 0-1.6.2s-1 .6-1.3 1c-.4.4-.6.9-.6 1.6 0 .8.3 1.5.8 2.1.6.5 1.3.8 2.2.8m0-4.2c.2 0 .5.1.7.2s.4.3.4.5.1.5.1.8c0 .2-.2.5-.3.6q-.3.3-.6.3c-.2 0-.5 0-.7-.1s-.4-.2-.5-.4c-.4-.1-.4-.3-.4-.6s.1-.6.4-.9c.1-.3.6-.4.9-.4"/></svg>