<svg xmlns="http://www.w3.org/2000/svg" width="24" height="24" fill="none"><path fill="#111827" d="M20.25 6.714a2.75 2.75 0 1 0 0 5.5 2.75 2.75 0 0 0 0-5.5m0 3.929a1.179 1.179 0 1 1 0-2.357 1.179 1.179 0 0 1 0 2.357M6.5 9.464a2.75 2.75 0 1 0-5.5 0 2.75 2.75 0 0 0 5.5 0m-2.75 1.179a1.179 1.179 0 1 1 0-2.357 1.179 1.179 0 0 1 0 2.357M8.464 7.5a2.75 2.75 0 1 0 0-5.5 2.75 2.75 0 0 0 0 5.5m0-3.929a1.179 1.179 0 1 1 0 2.358 1.179 1.179 0 0 1 0-2.358M15.536 7.5a2.75 2.75 0 1 0 0-5.5 2.75 2.75 0 0 0 0 5.5m0-3.929a1.179 1.179 0 1 1 0 2.358 1.179 1.179 0 0 1 0-2.358m2.27 9.906a3.47 3.47 0 0 1-1.656-2.076 4.322 4.322 0 0 0-8.3 0 3.46 3.46 0 0 1-1.645 2.072 3.928 3.928 0 0 0 3.39 7.077 6.3 6.3 0 0 1 4.8 0 3.929 3.929 0 0 0 3.411-7.072m-1.877 5.809c-.32 0-.635-.065-.929-.19a7.87 7.87 0 0 0-6.01 0 2.358 2.358 0 0 1-2.033-4.249 5.03 5.03 0 0 0 2.402-3.012 2.75 2.75 0 0 1 5.282 0 5.04 5.04 0 0 0 2.41 3.016 2.357 2.357 0 0 1-1.122 4.435"/></svg>