<svg xmlns="http://www.w3.org/2000/svg" width="24" height="24" fill="none"><path fill="#000" d="M17.832 12.417a1.25 1.25 0 1 1-2.5 0 1.25 1.25 0 0 1 2.5 0m2.916-2.916a1.25 1.25 0 1 0-.001-2.5 1.25 1.25 0 0 0 0 2.5m-4.166 5.833a1.25 1.25 0 1 0 0 2.5 1.25 1.25 0 0 0 0-2.5m4.166-4.166a1.25 1.25 0 1 0 0 2.5 1.25 1.25 0 0 0 0-2.5m0 4.166a1.25 1.25 0 1 0 0 2.5 1.25 1.25 0 0 0 0-2.5m0 4.166a1.25 1.25 0 1 0 0 2.5 1.25 1.25 0 0 0 0-2.5m-4.166 0a1.25 1.25 0 1 0 0 2.5 1.25 1.25 0 0 0 0-2.5m-4.166-4.166a1.25 1.25 0 1 0 0 2.5 1.25 1.25 0 0 0 0-2.5m0 4.166a1.25 1.25 0 1 0 0 2.5 1.25 1.25 0 0 0 0-2.5m6.178-15.328a2.54 2.54 0 0 1-.677 2.402l-6.346 6.347a2.53 2.53 0 0 1-2.401.675 2.5 2.5 0 0 1-1.81-1.661 6.4 6.4 0 0 1-.293-1.489c-.2-2.686.038-4.695.694-6.012a4.4 4.4 0 0 0-2.497-.764 1.6 1.6 0 0 0-1.598 1.597v15.9a.833.833 0 1 1-1.666 0v-15.9c0-1.8 1.465-3.265 3.264-3.265 1.71 0 2.94.7 3.55 1.14 1.261-.942 3.482-1.308 6.629-1.073a6.3 6.3 0 0 1 1.49.294 2.5 2.5 0 0 1 1.66 1.81m-1.62.388a.84.84 0 0 0-.559-.613 4.6 4.6 0 0 0-1.094-.216 22 22 0 0 0-1.604-.062c-2.015 0-3.472.333-4.095.956-.778.778-1.103 2.855-.893 5.699.027.37.1.74.216 1.094a.84.84 0 0 0 .612.558.88.88 0 0 0 .836-.234l6.346-6.346a.88.88 0 0 0 .234-.836"/></svg>