<svg xmlns="http://www.w3.org/2000/svg" xml:space="preserve" viewBox="0 0 24 24"><path d="M22.3 14.4v.3c0 .1-.1.2-.1.3-.1.1-.1.2-.2.2-.1.1-.2.1-.3.1l-2.7.8.7 2.6v.3c0 .1-.1.2-.1.3-.1.1-.1.2-.2.3s-.2.1-.3.1h-.2c-.2 0-.4-.1-.5-.2s-.3-.3-.3-.5l-.9-3-4.4-2.5v5l2.3 2.3c.1.1.1.2.2.3 0 .1.1.2.1.3s0 .2-.1.3c0 .1-.1.2-.2.3s-.2.1-.3.2c-.1 0-.2.1-.3.1s-.2 0-.3-.1c-.1 0-.2-.1-.3-.2l-2-2-2 2c-.1.1-.2.1-.3.2-.1 0-.2.1-.3.1s-.2 0-.3-.1c-.1 0-.2-.1-.3-.2s-.1-.2-.2-.3-.1-.2-.1-.3 0-.2.1-.3c0-.1.1-.2.2-.3l2.3-2.3v-5L6.8 16 6 19.1c0 .2-.2.3-.3.5-.2.1-.3.2-.5.2H5c-.1 0-.2-.1-.3-.1-.1-.1-.2-.2-.2-.3s-.2-.3-.2-.4v-.3l.7-2.6-2.6-.6c-.2-.1-.4-.2-.5-.4s-.2-.4-.1-.7c.1-.2.2-.4.4-.5s.4-.2.7-.1l3.2.8 4.4-2.5-4.6-2.6-3.2.8h-.2c-.2 0-.4-.1-.6-.2-.1-.2-.2-.4-.2-.6s0-.4.1-.6.3-.3.5-.3L5 7.9l-.7-2.6c-.1-.2 0-.5.1-.7s.3-.3.5-.4.5 0 .7.1.3.3.4.5L6.8 8l4.4 2.5v-5L8.8 3.1q-.3-.15-.3-.6c0-.1 0-.2.1-.3 0-.1.1-.2.2-.3s.2-.1.3-.2c.1 0 .2-.1.3-.1q.3 0 .6.3l2 2 2-2q.3-.3.6-.3t.6.3c.3.3.3.4.3.6q0 .3-.3.6l-2.3 2.3v5L17.2 8l.8-3.1c.1-.2.2-.4.4-.5s.4-.1.7-.1c.2.1.4.2.5.4s.1.4.1.7L19 7.9l2.6.6c.2 0 .4.2.5.3.1.2.2.4.2.6s-.1.4-.3.5-.4.2-.6.2h-.2L18 9.3 13.7 12l4.4 2.5 3.2-.8h.3c.1 0 .2.1.3.1.1.1.2.1.2.2.1.2.2.3.2.4"/></svg>