<svg xmlns="http://www.w3.org/2000/svg" xml:space="preserve" viewBox="0 0 24 24"><path d="M7.1 18.1c0 .2-.1.5-.2.7s-.3.3-.5.4-.5.1-.7.1-.5-.1-.7-.2q-.3-.3-.3-.6c0-.2 0-.5.1-.7s.2-.4.4-.5.5-.3.8-.3.6.1.8.3.3.5.3.8m15.6-2.4V21c0 .4-.2.8-.5 1.1s-.7.5-1.1.5H5.9c-.3 0-.5 0-.8-.1-1.1-.2-2.2-.9-2.9-1.9-.7-.9-.9-2.2-.7-3.3L4 2.6c0-.2.1-.4.2-.6.1-.1.3-.3.5-.4s.4-.2.6-.2H6l5.6 1c.4.1.8.3 1 .7.2.3.3.8.3 1.2l-1.2 7.1 7-2.5c.4-.1.8-.1 1.2.1s.7.5.8.9l2 5.4zm-14 3L11.3 4 5.7 3 3.1 17.6c-.1.7 0 1.6.4 2.2s1.1 1 1.9 1.1c.4.1.7.1 1.1 0 .3-.1.7-.2 1-.4s.5-.5.8-.8c.2-.3.3-.6.4-1m1.4 1 11-4-2-5.3-7.9 2.8-1 5.7c0 .3-.1.6-.1.8M21 17.4l-9.9 3.5H21z"/></svg>