<svg xmlns="http://www.w3.org/2000/svg" xml:space="preserve" viewBox="0 0 24 24"><path d="M2.4 13.3c0-5.2 4.3-9.5 9.6-9.5s9.6 4.3 9.6 9.6c0 2.5-1 4.9-2.6 6.6-.2.2-.6.3-1 .1l-1.7-.8c-.4-.2-.9 0-1.1.4s0 .9.4 1.1l1.7.8c.9.5 2.1.4 3-.5 1.9-2 3.2-4.8 3.2-7.7 0-6.2-5-11.2-11.2-11.2S.9 7.2.9 13.4c-.1 3 1.1 5.7 3 7.6.8.8 2 .9 3 .5l1.7-.8c.4-.2.6-.7.4-1.1s-.8-.6-1.2-.4l-1.7.8c-.4.2-.8.1-1-.1-1.7-1.7-2.7-3.9-2.7-6.6m14.9-4.1c.3-.3.3-.8 0-1.1s-.8-.3-1.1 0l-3.6 3.6c-.2-.1-.4-.1-.6-.1-1 0-1.9.8-1.9 1.9 0 1 .8 1.9 1.9 1.9 1 0 1.9-.8 1.9-1.9 0-.2 0-.4-.1-.6z" style="fill-rule:evenodd;clip-rule:evenodd"/></svg>