<svg xmlns="http://www.w3.org/2000/svg" xml:space="preserve" viewBox="0 0 24 24"><path d="M17.5 4.1h-4.7V1.8H16c.4 0 .8-.4.8-.8s-.4-.8-.8-.8H8.1c-.5 0-.8.3-.8.8s.4.8.8.8h3.2v2.4H6.5c-1.7 0-3.2 1.4-3.2 3.2v10.2c0 1.7 1.4 3.2 3.2 3.2h.8l-1.4 1.9c-.3.3-.2.8.2 1.1.3.3.8.2 1.1-.2l2.1-2.8h5.5l2.1 2.8c.3.3.8.4 1.1.2.3-.3.4-.8.2-1.1l-1.4-1.9h.8c1.7 0 3.2-1.4 3.2-3.2V7.3c-.1-1.8-1.5-3.2-3.3-3.2m-11 1.6h11c.9 0 1.6.7 1.6 1.6v3.9H4.9V7.3c0-.9.7-1.6 1.6-1.6m11 13.4h-11c-.9 0-1.6-.7-1.6-1.6v-4.7h14.2v4.7c0 .9-.7 1.6-1.6 1.6m-8.7-2.8c0 .7-.5 1.2-1.2 1.2s-1.1-.5-1.1-1.2.5-1.2 1.2-1.2 1.1.6 1.1 1.2m8.7 0c0 .7-.5 1.2-1.2 1.2s-1.2-.5-1.2-1.2.5-1.2 1.2-1.2 1.2.6 1.2 1.2"/></svg>