<svg xmlns="http://www.w3.org/2000/svg" xml:space="preserve" viewBox="0 0 24 24"><path d="M19 5.4c-.6-1.3-1.5-2.6-2.8-3.4C15 1.2 13.5.8 12 .8s-3 .4-4.2 1.3-2.3 2-2.8 3.3C3.8 6.1 2.7 7 2 8.1S.8 10.6.8 12c0 3.9 3.2 7.1 7 7.2 1.1 0 2.4-.2 3.4-.7v3.9c0 .2.1.4.2.6.1.1.3.2.6.2s.4-.1.6-.2c.1-.1.2-.3.2-.6v-3.9c1 .5 2 .7 3.2.7h.2c3.9-.1 7-3.3 7-7.2 0-1.3-.4-2.7-1.1-3.9-.8-1.1-1.9-2-3.1-2.7m-2.9 12.1c-1.1 0-2.3-.3-3.3-.9 0 0-.1 0-.1-.1v-4.1l4.3-2.2c.1 0 .2-.1.2-.2.1-.1.1-.2.2-.3v-.3c0-.1 0-.2-.1-.3 0-.1-.1-.2-.2-.2.1 0 0 0-.1-.1h-.3c-.1 0-.2 0-.3.1l-3.6 1.8V8c0-.2-.1-.4-.2-.6-.1-.1-.3-.2-.6-.2s-.4.1-.6.2c-.1.1-.2.3-.2.6v5.1l-3.6-1.8q-.3-.15-.6 0c-.2.1-.4.2-.5.4q-.15.3 0 .6c.1.2.2.4.4.5l4.3 2.2v1.7s-.1 0-.1.1q-1.35.9-3.3.9c-1.95 0-2.5-.5-3.5-1.3-.9-.8-1.6-1.9-1.8-3.2-.2-1.2-.1-2.5.5-3.7s1.5-2 2.7-2.6c.4-.2.6-.5.8-.8.4-1.1 1.2-2 2.3-2.7s2.2-1 3.3-1c1.2 0 2.4.3 3.3 1 1 .6 1.7 1.5 2.3 2.7.1.4.4.6.8.8 1.1.5 2 1.4 2.7 2.6s.7 2.5.5 3.7-.9 2.4-1.8 3.2c-1.3.7-2.5 1.1-3.8 1.1"/></svg>