<svg xmlns="http://www.w3.org/2000/svg" xml:space="preserve" viewBox="0 0 24 24"><path d="M20.9 12.8c0 .5-.4.9-.9.9-3.6 0-5.5-2-6.9-3.6-.2-.2-.3-.4-.5-.5l-1.3 3 3.7 2.6c.2.2.4.5.4.8v5.7c0 .5-.4.9-.9.9s-.9-.4-.9-.9v-5.2l-2.9-2.1-3.3 7.7c-.1.2-.3.4-.5.5-.1 0-.2.1-.3.1s-.2 0-.4-.1c-.5-.2-.7-.8-.5-1.2l3.7-8.7v-.1l1.6-4h-.8c-.7.1-1.6.4-2.5.9-.8.5-1.5 1-2.2 1.5-.3.2-.5.4-.7.6l-.2.2c-.4.4-.9.4-1.3 0s-.4-.9 0-1.3l.1-.1c.3-.3.6-.6.9-.8.8-.7 1.6-1.2 2.4-1.7Q8.5 6.85 10 6.7c1.5-.15 1.9.1 2.6.5.1 0 .2.1.2.1.2.1.4.3.6.5L14.6 9c1.4 1.5 2.6 2.8 5.4 2.8.5 0 .9.5.9 1M14.4 1.3c-1.5 0-2.7 1.2-2.7 2.7s1.2 2.7 2.7 2.7 2.7-1.2 2.7-2.7-1.2-2.7-2.7-2.7m0 4.1c-.7 0-1.4-.7-1.4-1.4s.7-1.4 1.4-1.4 1.4.7 1.4 1.4-.7 1.4-1.4 1.4"/></svg>