<svg xmlns="http://www.w3.org/2000/svg" xml:space="preserve" id="Layer_1" x="0" y="0" version="1.1" viewBox="0 0 24 24"><style>.st0{fill-rule:evenodd;clip-rule:evenodd}</style><path d="M19.5 1.2H4c-.4 0-.8.4-.8.8v20c0 .4.3.8.8.8h15.5c.4 0 .8-.3.8-.8V2c-.1-.4-.4-.8-.8-.8M4.8 2.7h4.5v2.5H4.8zm13.9 18.5h-14V6.7H10c.4 0 .8-.3.8-.8V2.7h8v18.5z" class="st0"/><path d="M17.9 4.6c0 .4-.3.8-.8.8H13c-.4 0-.8-.3-.8-.8 0-.4.3-.8.8-.8h4.1c.5.1.8.4.8.8m-6.2 3.6c-3.1 0-5.6 2.5-5.6 5.6s2.5 5.5 5.6 5.5 5.5-2.5 5.5-5.5c.1-3.1-2.4-5.6-5.5-5.6m0 9.6c-2.2 0-4.1-1.8-4.1-4s1.8-4.1 4.1-4.1 4 1.8 4 4.1c.1 2.2-1.7 4-4 4" class="st0"/></svg>