<svg xmlns="http://www.w3.org/2000/svg" width="24" height="24" fill="none"><path fill="#000" d="M22.959 18.668a.816.816 0 0 0-1.032-.515l-1.774.591-2.944-5.887a.82.82 0 0 0-.729-.45H8.33V9.962h5.705a.815.815 0 1 0 0-1.63H8.331v-.917a3.26 3.26 0 1 0-1.63 0v1.102A7.335 7.335 0 0 0 8.33 23c3.414 0 6.488-2.313 7.309-5.5a.815.815 0 1 0-1.58-.408c-.627 2.445-3.09 4.278-5.73 4.278A5.705 5.705 0 0 1 6.7 10.2v3.022a.815.815 0 0 0 .816.814h8.46l3.035 6.07a.815.815 0 0 0 .987.407l2.445-.815a.815.815 0 0 0 .515-1.03M5.886 4.258a1.63 1.63 0 1 1 3.259 0 1.63 1.63 0 0 1-3.26 0"/></svg>