<svg xmlns="http://www.w3.org/2000/svg" xml:space="preserve" viewBox="0 0 24 24"><path d="m19.5 8.9-2.1-7.2c0-.2-.1-.3-.3-.4-.1-.1-.3-.1-.4-.1H7.3c-.2 0-.3.1-.4.1-.2 0-.3.2-.3.3L4.5 8.9c-.3 1.1-.3 2.3 0 3.4s.9 2.1 1.8 2.9c1.4 1.4 3.1 2.1 5.1 2.3v3.9H8.2c-.2 0-.4.1-.5.2s-.2.3-.2.5.1.4.2.5.3.2.5.2H16c.2 0 .4-.1.5-.2s.2-.3.2-.5-.1-.4-.2-.5-.3-.2-.5-.2h-3.1v-4c1.9-.2 3.6-.9 5.1-2.3.8-.8 1.5-1.8 1.8-2.9.1-1 .1-2.3-.3-3.3M7.9 2.6h8.2l2 6.7v.1c-2.1.7-4.5-.1-5.7-.8-2.5-1.3-4.5-1.4-5.9-1.2zM16.8 14c-1.3 1.3-3 1.9-4.8 1.9s-3.4-.7-4.8-1.9c-.6-.6-1-1.4-1.4-2.2-.2-.8-.2-1.7 0-2.5v-.1c1.1-.4 3-.5 5.6.8 1 .5 2.8 1.3 4.7 1.3.6 0 1.3-.1 1.9-.2.1 1-.4 2.2-1.2 2.9"/></svg>